<?xml version="1.0" standalone="no"?><!-- Generator: Gravit.io --><svg xmlns="http://www.w3.org/2000/svg" xmlns:xlink="http://www.w3.org/1999/xlink" style="isolation:isolate" viewBox="0 0 300 300" width="300" height="300"><defs><clipPath id="_clipPath_jHCKlQFBEFdI5HZGRJ4ZQDProk8yGrxH"><rect width="300" height="300"/></clipPath></defs><g clip-path="url(#_clipPath_jHCKlQFBEFdI5HZGRJ4ZQDProk8yGrxH)"><path d=" M 17.604 106.09 C 14.171 91.094 31.729 63.64 46.724 60.207 L 195.618 36.769 C 210.613 33.336 225.552 42.71 228.984 57.706 C 231.278 67.727 227.833 77.702 220.834 84.255 L 270.577 203.041 C 272.513 211.501 262.586 236.971 240.177 239.177 L 86.462 274.361 C 78.008 276.298 69.579 271.01 67.643 262.552 L 36.487 126.449 C 27.337 123.592 19.897 116.11 17.604 106.09 Z " fill="rgb(113,76,49)"/><clipPath id="_clipPath_hNXO0bCDA3z5dfDv9V1WeGwZvKOj44R4"><path d=" M -146 -289 L -146 618.319 L 761.319 618.319 L 761.319 -289 L -146 -289 Z " fill="rgb(255,255,255)"/></clipPath><g clip-path="url(#_clipPath_hNXO0bCDA3z5dfDv9V1WeGwZvKOj44R4)"><path d=" M 36.195 88.775 C 32.762 73.779 42.136 58.841 57.13 55.407 L 214.209 19.454 C 229.205 16.021 244.143 25.395 247.575 40.391 C 249.869 50.41 246.423 60.385 239.425 66.939 L 270.577 203.041 C 272.513 211.501 267.226 219.924 258.768 221.86 L 105.055 257.044 C 96.599 258.981 88.17 253.693 86.234 245.236 L 55.08 109.133 C 45.929 106.277 38.489 98.795 36.195 88.775 Z " fill="rgb(216,156,98)"/></g><clipPath id="_clipPath_KkXDLowEHdc6XNEfoFcla3A2yZUQB9bN"><path d=" M -146 -289 L -146 618.319 L 761.319 618.319 L 761.319 -289 L -146 -289 Z " fill="rgb(255,255,255)"/></clipPath><g clip-path="url(#_clipPath_KkXDLowEHdc6XNEfoFcla3A2yZUQB9bN)"><path d=" M 219.952 113.258 C 218.924 104.546 211.108 98.046 202.044 98.574 C 192.644 99.122 185.454 107.023 185.992 116.219 C 186.041 117.051 186.151 117.865 186.318 118.658" fill="none" vector-effect="non-scaling-stroke" stroke-width="2.361" stroke="rgb(108,76,49)" stroke-linejoin="miter" stroke-linecap="square" stroke-miterlimit="3"/></g><clipPath id="_clipPath_1sNC4D5zh8JIXbbLaSxKTRIhJsmwow2B"><path d=" M -146 -289 L -146 618.319 L 761.319 618.319 L 761.319 -289 L -146 -289 Z " fill="rgb(255,255,255)"/></clipPath><g clip-path="url(#_clipPath_1sNC4D5zh8JIXbbLaSxKTRIhJsmwow2B)"><path d=" M 131.963 133.399 C 130.934 124.687 123.12 118.185 114.054 118.715 C 104.652 119.263 97.464 127.163 98 136.36 C 98.051 137.193 98.159 138.006 98.326 138.799" fill="none" vector-effect="non-scaling-stroke" stroke-width="2.361" stroke="rgb(108,76,49)" stroke-linejoin="miter" stroke-linecap="square" stroke-miterlimit="3"/></g><clipPath id="_clipPath_RuWszkdLqN7vIVkosUABkMYgYoLDIYLm"><path d=" M -146 -289 L -146 618.319 L 761.319 618.319 L 761.319 -289 L -146 -289 Z " fill="rgb(255,255,255)"/></clipPath><g clip-path="url(#_clipPath_RuWszkdLqN7vIVkosUABkMYgYoLDIYLm)"><path d=" M 193.776 138.113 L 193.776 138.113 C 197.418 154.024 187.474 169.876 171.562 173.518 C 155.651 177.159 139.8 167.213 136.156 151.3 L 136.156 151.3 L 193.776 138.113 Z " fill="rgb(108,76,49)"/></g></g></svg>